# Blender 3.1.0
# www.blender.org
mtllib quarter-pipe-with-vomitorium.mtl
o quarter-pipe
v -0.500000 0.804910 -1.000000
v -0.500000 0.000000 -0.000000
v -0.500000 0.019215 -0.195090
v -0.500000 0.076121 -0.382684
v -0.500000 0.168530 -0.555570
v -0.500000 0.292893 -0.707107
v -0.500000 0.444430 -0.831470
v -0.500000 0.617317 -0.923880
v -0.500000 0.804910 -0.980785
v 0.500000 0.000000 -1.000000
v 0.500000 0.804910 -1.000000
v 0.500000 0.000000 -0.000000
v 0.500000 0.019215 -0.195090
v 0.500000 0.076121 -0.382684
v 0.500000 0.168530 -0.555570
v 0.500000 0.292893 -0.707107
v 0.500000 0.444430 -0.831470
v 0.500000 0.617317 -0.923880
v 0.500000 0.804910 -0.980785
v -0.500000 0.000000 -1.000000
v -0.149653 0.549837 -0.887811
v -0.190472 0.518800 -0.871221
v -0.245058 0.444430 -0.831470
v 0.245058 0.444430 -0.831470
v 0.223971 0.480981 -0.851007
v -0.223971 0.480981 -0.851007
v -0.000000 0.591898 -0.910293
v -0.052551 0.587102 -0.907730
v 0.052551 0.587102 -0.907730
v 0.190472 0.518800 -0.871221
v 0.149653 0.549837 -0.887811
v -0.103083 0.572900 -0.900139
v 0.103082 0.572900 -0.900139
v -0.269368 0.168530 -0.555570
v 0.269368 0.168530 -0.555570
v -0.269368 0.292893 -0.707107
v 0.269368 0.292893 -0.707107
v -0.264192 0.393428 -0.789613
v -0.269368 0.346938 -0.751460
v 0.269368 0.346938 -0.751460
v 0.264192 0.393428 -0.789613
v -0.269368 0.123853 -0.471985
v 0.269368 0.123853 -0.471985
v 0.190472 0.495449 -1.000000
v 0.248863 0.406635 -1.000000
v 0.223971 0.453965 -1.000000
v 0.264192 0.355280 -1.000000
v 0.269368 0.301872 -1.000000
v -0.269368 0.000000 -1.000000
v 0.269368 0.000000 -1.000000
v -0.000000 0.575632 -1.000000
v -0.052551 0.570372 -1.000000
v 0.052551 0.570372 -1.000000
v -0.103083 0.554793 -1.000000
v 0.103082 0.554793 -1.000000
v -0.149653 0.529495 -1.000000
v -0.190472 0.495449 -1.000000
v -0.248863 0.406635 -1.000000
v -0.269368 0.301872 -1.000000
v -0.264192 0.355280 -1.000000
v -0.223971 0.453965 -1.000000
v 0.149653 0.529495 -1.000000
vn -0.0000 0.4714 0.8819
vn -0.0000 0.7730 0.6344
vn -0.0000 0.9569 0.2903
vn -0.0000 0.2903 0.9569
vn -0.0000 0.6344 0.7730
vn -0.0000 0.8819 0.4714
vn -0.0000 0.9952 0.0980
vn -0.0000 1.0000 -0.0000
vn -0.0000 -1.0000 -0.0000
vn -0.0000 0.9736 -0.2284
vn -0.0000 -0.0000 -1.0000
vn 1.0000 -0.0000 -0.0000
vn -1.0000 -0.0000 -0.0000
vn 0.9996 -0.0299 -0.0009
vn 0.9996 0.0176 0.0214
vn 0.9808 -0.1920 0.0348
vn 0.9208 -0.3844 0.0654
vn 0.8269 -0.5533 0.1003
vn 0.7071 -0.6958 0.1262
vn 0.5556 -0.8181 0.1483
vn 0.3827 -0.9091 0.1648
vn 0.2903 -0.9416 0.1707
vn 0.0980 -0.9792 0.1776
vn -0.0980 -0.9792 0.1776
vn -0.2903 -0.9416 0.1707
vn -0.4714 -0.8678 0.1573
vn -0.5556 -0.8181 0.1483
vn -0.7071 -0.6958 0.1262
vn -0.8269 -0.5533 0.1003
vn -0.9208 -0.3844 0.0654
vn -0.9808 -0.1920 0.0348
vn -0.9990 -0.0448 0.0081
vt 0.000000 0.000000
vt 0.000000 0.000000
vt 0.000000 0.000000
vt 0.000000 0.000000
vt 0.000000 0.000000
vt 0.000000 0.000000
vt 0.000000 0.000000
vt 0.000000 0.000000
vt 0.000000 0.000000
vt 0.000000 0.000000
vt 0.000000 0.000000
vt 0.000000 0.000000
vt 0.000000 0.000000
vt 0.000000 0.000000
vt 0.000000 0.000000
vt 0.000000 0.000000
vt 0.000000 0.000000
vt 0.000000 0.000000
vt 0.000000 0.000000
vt 0.000000 0.000000
vt 0.000000 0.000000
vt 0.000000 0.000000
vt 0.000000 0.000000
vt 0.000000 0.000000
vt 0.000000 0.000000
vt 0.000000 0.000000
vt 0.000000 0.000000
vt 0.000000 0.000000
vt 0.000000 0.000000
vt 0.000000 0.000000
vt 0.000000 0.000000
vt 0.000000 0.000000
vt 0.000000 0.000000
vt 0.000000 0.000000
vt 0.000000 0.000000
vt 0.000000 0.000000
vt 0.000000 0.000000
vt 0.000000 0.000000
vt 0.000000 0.000000
vt 0.000000 0.000000
vt 0.000000 0.000000
vt 0.000000 0.000000
vt 0.000000 0.000000
vt 0.000000 0.000000
vt 0.000000 0.000000
vt 0.000000 0.000000
vt 0.000000 0.000000
vt 0.000000 0.000000
vt 0.000000 0.000000
vt 0.000000 0.000000
vt 0.000000 0.000000
vt 0.000000 0.000000
vt 0.000000 0.000000
vt 0.000000 0.000000
vt 0.000000 0.000000
vt 0.000000 0.000000
vt 0.000000 0.000000
vt 0.000000 0.000000
vt 0.000000 0.000000
vt 0.000000 0.000000
vt 0.000000 0.000000
vt 0.000000 0.000000
s 0
f 24/24/1 17/17/1 18/18/1 8/8/1 7/7/1 23/23/1 26/26/1 22/22/1 21/21/1 32/32/1 28/28/1 27/27/1 29/29/1 33/33/1 31/31/1 30/30/1 25/25/1
f 15/15/2 16/16/2 37/37/2 35/35/2
f 6/6/2 5/5/2 34/34/2 36/36/2
f 4/4/3 3/3/3 13/13/3 14/14/3
f 9/9/4 8/8/4 18/18/4 19/19/4
f 37/37/5 16/16/5 17/17/5 24/24/5 41/41/5 40/40/5
f 23/23/5 7/7/5 6/6/5 36/36/5 39/39/5 38/38/5
f 34/34/6 5/5/6 4/4/6 14/14/6 15/15/6 35/35/6 43/43/6 42/42/6
f 3/3/7 2/2/7 12/12/7 13/13/7
f 1/1/8 9/9/8 19/19/8 11/11/8
f 12/12/9 2/2/9 20/20/9 49/49/9 50/50/9 10/10/9
f 43/43/10 50/50/10 49/49/10 42/42/10
f 20/20/11 1/1/11 11/11/11 10/10/11 50/50/11 48/48/11 47/47/11 45/45/11 46/46/11 44/44/11 62/62/11 55/55/11 53/53/11 51/51/11 52/52/11 54/54/11 56/56/11 57/57/11 61/61/11 58/58/11 60/60/11 59/59/11 49/49/11
f 13/13/12 12/12/12 10/10/12 11/11/12 19/19/12 18/18/12 17/17/12 16/16/12 15/15/12 14/14/12
f 8/8/13 9/9/13 1/1/13 20/20/13 2/2/13 3/3/13 4/4/13 5/5/13 6/6/13 7/7/13
f 42/42/12 49/49/12 59/59/12 34/34/12
f 34/34/14 59/59/14 60/60/14 36/36/14
f 36/36/15 60/60/15 39/39/15
f 39/39/16 60/60/16 58/58/16 38/38/16
f 38/38/17 58/58/17 61/61/17 23/23/17
f 23/23/18 61/61/18 57/57/18 26/26/18
f 26/26/19 57/57/19 56/56/19 22/22/19
f 22/22/20 56/56/20 54/54/20 21/21/20
f 21/21/21 54/54/21 52/52/21 32/32/21
f 32/32/22 52/52/22 28/28/22
f 28/28/23 52/52/23 51/51/23 27/27/23
f 27/27/24 51/51/24 53/53/24 29/29/24
f 29/29/25 53/53/25 55/55/25 33/33/25
f 33/33/26 55/55/26 31/31/26
f 31/31/27 55/55/27 62/62/27 30/30/27
f 30/30/28 62/62/28 44/44/28 25/25/28
f 25/25/29 44/44/29 46/46/29 24/24/29
f 24/24/30 46/46/30 45/45/30 41/41/30
f 41/41/31 45/45/31 47/47/31 40/40/31
f 40/40/32 47/47/32 48/48/32 37/37/32
f 37/37/13 48/48/13 35/35/13
f 35/35/13 48/48/13 50/50/13 43/43/13
