# Blender 3.1.0
# www.blender.org
mtllib quarter-pipe-turn-tight.mtl
o quarter-pipe-turn-tight
v 0.000000 0.804910 -1.000000
v 0.000000 0.000000 -0.000000
v 0.000000 0.019215 -0.195090
v 0.000000 0.076121 -0.382684
v 0.000000 0.168530 -0.555570
v 0.000000 0.292893 -0.707107
v 0.000000 0.444430 -0.831470
v 0.000000 0.617317 -0.923880
v 0.000000 0.804910 -0.980785
v 0.000000 0.000000 -1.000000
v -0.130526 0.804910 -0.991445
v 0.000000 0.000000 -0.000000
v -0.025464 0.019215 -0.193421
v -0.049950 0.076121 -0.379410
v -0.072516 0.168530 -0.550817
v -0.092296 0.292893 -0.701057
v -0.108529 0.444430 -0.824356
v -0.120590 0.617317 -0.915976
v -0.128018 0.804910 -0.972395
v -0.130526 0.000000 -0.991445
v -0.258819 0.804910 -0.965926
v 0.000000 0.000000 -0.000000
v -0.050493 0.019215 -0.188443
v -0.099046 0.076121 -0.369644
v -0.143792 0.168530 -0.536640
v -0.183013 0.292893 -0.683013
v -0.215200 0.444430 -0.803138
v -0.239118 0.617317 -0.892399
v -0.253846 0.804910 -0.947366
v -0.258819 0.000000 -0.965926
v -0.382683 0.804910 -0.923880
v 0.000000 0.000000 -0.000000
v -0.074658 0.019215 -0.180240
v -0.146447 0.076121 -0.353554
v -0.212607 0.168530 -0.513280
v -0.270598 0.292893 -0.653281
v -0.318190 0.444430 -0.768178
v -0.353553 0.617317 -0.853554
v -0.375330 0.804910 -0.906128
v -0.382683 0.000000 -0.923880
v -0.500000 0.804910 -0.866026
v 0.000000 0.000000 -0.000000
v -0.097545 0.019215 -0.168953
v -0.191342 0.076121 -0.331414
v -0.277785 0.168530 -0.481138
v -0.353553 0.292893 -0.612372
v -0.415735 0.444430 -0.720074
v -0.461940 0.617317 -0.800103
v -0.490393 0.804910 -0.849385
v -0.500000 0.000000 -0.866026
v -0.608762 0.804910 -0.793353
v 0.000000 0.000000 -0.000000
v -0.118763 0.019215 -0.154776
v -0.232963 0.076121 -0.303603
v -0.338210 0.168530 -0.440763
v -0.430459 0.292893 -0.560986
v -0.506167 0.444430 -0.659649
v -0.562422 0.617317 -0.732963
v -0.597064 0.804910 -0.778109
v -0.608761 0.000000 -0.793353
v -0.707107 0.804910 -0.707107
v 0.000000 0.000000 -0.000000
v -0.137950 0.019215 -0.137950
v -0.270598 0.076121 -0.270598
v -0.392847 0.168530 -0.392847
v -0.500000 0.292893 -0.500000
v -0.587938 0.444430 -0.587938
v -0.653282 0.617317 -0.653282
v -0.693520 0.804910 -0.693520
v -0.707107 0.000000 -0.707107
v -0.793354 0.804910 -0.608762
v 0.000000 0.000000 -0.000000
v -0.154776 0.019215 -0.118764
v -0.303603 0.076121 -0.232963
v -0.440763 0.168530 -0.338210
v -0.560986 0.292893 -0.430459
v -0.659649 0.444430 -0.506167
v -0.732963 0.617317 -0.562422
v -0.778109 0.804910 -0.597064
v -0.793353 0.000000 -0.608762
v -0.866026 0.804910 -0.500000
v 0.000000 0.000000 -0.000000
v -0.168953 0.019215 -0.097545
v -0.331414 0.076121 -0.191342
v -0.481138 0.168530 -0.277785
v -0.612372 0.292893 -0.353554
v -0.720074 0.444430 -0.415735
v -0.800103 0.617317 -0.461940
v -0.849385 0.804910 -0.490393
v -0.866026 0.000000 -0.500000
v -0.923880 0.804910 -0.382684
v 0.000000 0.000000 -0.000000
v -0.180240 0.019215 -0.074658
v -0.353554 0.076121 -0.146447
v -0.513280 0.168530 -0.212608
v -0.653282 0.292893 -0.270598
v -0.768178 0.444430 -0.318190
v -0.853554 0.617317 -0.353554
v -0.906128 0.804910 -0.375330
v -0.923880 0.000000 -0.382684
v -0.965926 0.804910 -0.258819
v 0.000000 0.000000 -0.000000
v -0.188443 0.019215 -0.050493
v -0.369644 0.076121 -0.099046
v -0.536640 0.168530 -0.143792
v -0.683013 0.292893 -0.183013
v -0.803138 0.444430 -0.215200
v -0.892399 0.617317 -0.239118
v -0.947366 0.804910 -0.253846
v -0.965926 0.000000 -0.258819
v -0.991445 0.804910 -0.130526
v -0.000000 0.000000 -0.000000
v -0.193421 0.019215 -0.025464
v -0.379410 0.076121 -0.049950
v -0.550817 0.168530 -0.072517
v -0.701058 0.292893 -0.092296
v -0.824356 0.444430 -0.108529
v -0.915976 0.617317 -0.120591
v -0.972395 0.804910 -0.128018
v -0.991445 0.000000 -0.130526
v -1.000000 0.804910 -0.000000
v -0.000000 0.000000 -0.000000
v -0.195090 0.019215 -0.000000
v -0.382684 0.076121 -0.000000
v -0.555570 0.168530 -0.000000
v -0.707107 0.292893 -0.000000
v -0.831470 0.444430 -0.000000
v -0.923880 0.617317 -0.000000
v -0.980786 0.804910 -0.000000
v -1.000000 0.000000 -0.000000
vn 1.0000 -0.0000 -0.0000
vn 0.1867 0.2897 0.9387
vn -0.0654 -0.0000 -0.9979
vn 0.0626 0.2897 0.9551
vn 0.0415 0.7723 0.6338
vn 0.0064 0.9952 0.0980
vn -0.0000 1.0000 -0.0000
vn 0.0506 0.6336 0.7720
vn 0.0190 0.9568 0.2902
vn -0.0000 -1.0000 -0.0000
vn 0.0577 0.4706 0.8805
vn 0.0309 0.8815 0.4712
vn 0.2042 0.7723 0.6015
vn 0.1239 0.7723 0.6230
vn 0.0192 0.9952 0.0963
vn 0.1509 0.6336 0.7588
vn 0.0567 0.9568 0.2853
vn 0.1721 0.4706 0.8654
vn 0.0921 0.8815 0.4631
vn -0.1951 -0.0000 -0.9808
vn 0.0434 0.9952 0.0881
vn 0.0316 0.9952 0.0930
vn 0.2487 0.6336 0.7326
vn 0.0935 0.9568 0.2754
vn 0.2836 0.4706 0.8355
vn 0.1518 0.8815 0.4471
vn -0.3214 -0.0000 -0.9469
vn 0.3077 0.2897 0.9063
vn 0.3422 0.6336 0.6939
vn 0.1286 0.9568 0.2609
vn 0.3902 0.4706 0.7913
vn 0.2088 0.8815 0.4235
vn -0.4423 -0.0000 -0.8969
vn 0.4233 0.2897 0.8584
vn 0.2809 0.7723 0.5697
vn 0.5101 0.6336 0.5817
vn 0.4298 0.6336 0.6433
vn 0.1616 0.9568 0.2418
vn 0.4902 0.4706 0.7336
vn 0.2623 0.8815 0.3926
vn -0.5556 -0.0000 -0.8315
vn 0.5317 0.2897 0.7958
vn 0.3529 0.7723 0.5282
vn 0.0546 0.9952 0.0817
vn 0.2187 0.9568 0.1918
vn 0.1918 0.9568 0.2187
vn 0.5818 0.4706 0.6634
vn 0.3113 0.8815 0.3550
vn -0.6593 -0.0000 -0.7518
vn 0.6311 0.2897 0.7196
vn 0.4188 0.7723 0.4776
vn 0.0648 0.9952 0.0738
vn 0.7336 0.4706 0.4902
vn 0.6634 0.4706 0.5818
vn 0.3550 0.8815 0.3113
vn -0.7518 -0.0000 -0.6593
vn 0.7196 0.2897 0.6311
vn 0.4776 0.7723 0.4188
vn 0.0738 0.9952 0.0648
vn 0.5817 0.6336 0.5101
vn 0.4235 0.8815 0.2088
vn 0.3926 0.8815 0.2623
vn -0.8315 -0.0000 -0.5556
vn 0.7958 0.2897 0.5317
vn 0.5282 0.7723 0.3529
vn 0.0817 0.9952 0.0546
vn 0.6433 0.6336 0.4298
vn 0.2418 0.9568 0.1616
vn -0.9469 -0.0000 -0.3214
vn -0.8969 -0.0000 -0.4423
vn 0.8584 0.2897 0.4233
vn 0.5697 0.7723 0.2809
vn 0.0881 0.9952 0.0434
vn 0.6939 0.6336 0.3422
vn 0.2609 0.9568 0.1286
vn 0.7913 0.4706 0.3902
vn 0.9387 0.2897 0.1867
vn 0.9063 0.2897 0.3077
vn 0.6015 0.7723 0.2042
vn 0.0930 0.9952 0.0316
vn 0.7326 0.6336 0.2487
vn 0.2754 0.9568 0.0935
vn 0.8355 0.4706 0.2836
vn 0.4471 0.8815 0.1518
vn 0.6338 0.7723 0.0415
vn 0.6230 0.7723 0.1239
vn 0.0963 0.9952 0.0192
vn 0.7588 0.6336 0.1509
vn 0.2853 0.9568 0.0567
vn 0.8654 0.4706 0.1721
vn 0.4631 0.8815 0.0921
vn -0.9808 -0.0000 -0.1951
vn -0.0000 -0.0000 1.0000
vn 0.0980 0.9952 0.0064
vn 0.7720 0.6336 0.0506
vn 0.2902 0.9568 0.0190
vn 0.8805 0.4706 0.0577
vn 0.4712 0.8815 0.0309
vn -0.9979 -0.0000 -0.0654
vn 0.9551 0.2897 0.0626
s 0
f 3//1 2//1 10//1 1//1 9//1 8//1 7//1 6//1 5//1 4//1
f 18//2 19//2 29//2 28//2
f 1//3 10//3 20//3 11//3
f 8//4 9//4 19//4 18//4
f 5//5 6//5 16//5 15//5
f 2//6 3//6 13//6 12//6
f 9//7 1//7 11//7 19//7
f 6//8 7//8 17//8 16//8
f 3//9 4//9 14//9 13//9
f 10//10 2//10 12//10 20//10
f 7//11 8//11 18//11 17//11
f 4//12 5//12 15//12 14//12
f 25//13 26//13 36//13 35//13
f 15//14 16//14 26//14 25//14
f 12//15 13//15 23//15 22//15
f 19//7 11//7 21//7 29//7
f 16//16 17//16 27//16 26//16
f 13//17 14//17 24//17 23//17
f 20//10 12//10 22//10 30//10
f 17//18 18//18 28//18 27//18
f 14//19 15//19 25//19 24//19
f 11//20 20//20 30//20 21//20
f 32//21 33//21 43//21 42//21
f 22//22 23//22 33//22 32//22
f 29//7 21//7 31//7 39//7
f 26//23 27//23 37//23 36//23
f 23//24 24//24 34//24 33//24
f 30//10 22//10 32//10 40//10
f 27//25 28//25 38//25 37//25
f 24//26 25//26 35//26 34//26
f 21//27 30//27 40//27 31//27
f 28//28 29//28 39//28 38//28
f 49//7 41//7 51//7 59//7
f 39//7 31//7 41//7 49//7
f 36//29 37//29 47//29 46//29
f 33//30 34//30 44//30 43//30
f 40//10 32//10 42//10 50//10
f 37//31 38//31 48//31 47//31
f 34//32 35//32 45//32 44//32
f 31//33 40//33 50//33 41//33
f 38//34 39//34 49//34 48//34
f 35//35 36//35 46//35 45//35
f 56//36 57//36 67//36 66//36
f 46//37 47//37 57//37 56//37
f 43//38 44//38 54//38 53//38
f 50//10 42//10 52//10 60//10
f 47//39 48//39 58//39 57//39
f 44//40 45//40 55//40 54//40
f 41//41 50//41 60//41 51//41
f 48//42 49//42 59//42 58//42
f 45//43 46//43 56//43 55//43
f 42//44 43//44 53//44 52//44
f 63//45 64//45 74//45 73//45
f 53//46 54//46 64//46 63//46
f 60//10 52//10 62//10 70//10
f 57//47 58//47 68//47 67//47
f 54//48 55//48 65//48 64//48
f 51//49 60//49 70//49 61//49
f 58//50 59//50 69//50 68//50
f 55//51 56//51 66//51 65//51
f 52//52 53//52 63//52 62//52
f 59//7 51//7 61//7 69//7
f 77//53 78//53 88//53 87//53
f 70//10 62//10 72//10 80//10
f 67//54 68//54 78//54 77//54
f 64//55 65//55 75//55 74//55
f 61//56 70//56 80//56 71//56
f 68//57 69//57 79//57 78//57
f 65//58 66//58 76//58 75//58
f 62//59 63//59 73//59 72//59
f 69//7 61//7 71//7 79//7
f 66//60 67//60 77//60 76//60
f 84//61 85//61 95//61 94//61
f 74//62 75//62 85//62 84//62
f 71//63 80//63 90//63 81//63
f 78//64 79//64 89//64 88//64
f 75//65 76//65 86//65 85//65
f 72//66 73//66 83//66 82//66
f 79//7 71//7 81//7 89//7
f 76//67 77//67 87//67 86//67
f 73//68 74//68 84//68 83//68
f 80//10 72//10 82//10 90//10
f 91//69 100//69 110//69 101//69
f 81//70 90//70 100//70 91//70
f 88//71 89//71 99//71 98//71
f 85//72 86//72 96//72 95//72
f 82//73 83//73 93//73 92//73
f 89//7 81//7 91//7 99//7
f 86//74 87//74 97//74 96//74
f 83//75 84//75 94//75 93//75
f 90//10 82//10 92//10 100//10
f 87//76 88//76 98//76 97//76
f 108//77 109//77 119//77 118//77
f 98//78 99//78 109//78 108//78
f 95//79 96//79 106//79 105//79
f 92//80 93//80 103//80 102//80
f 99//7 91//7 101//7 109//7
f 96//81 97//81 107//81 106//81
f 93//82 94//82 104//82 103//82
f 100//10 92//10 102//10 110//10
f 97//83 98//83 108//83 107//83
f 94//84 95//84 105//84 104//84
f 115//85 116//85 126//85 125//85
f 105//86 106//86 116//86 115//86
f 102//87 103//87 113//87 112//87
f 109//7 101//7 111//7 119//7
f 106//88 107//88 117//88 116//88
f 103//89 104//89 114//89 113//89
f 110//10 102//10 112//10 120//10
f 107//90 108//90 118//90 117//90
f 104//91 105//91 115//91 114//91
f 101//92 110//92 120//92 111//92
f 123//93 124//93 125//93 126//93 127//93 128//93 129//93 121//93 130//93 122//93
f 112//94 113//94 123//94 122//94
f 119//7 111//7 121//7 129//7
f 116//95 117//95 127//95 126//95
f 113//96 114//96 124//96 123//96
f 120//10 112//10 122//10 130//10
f 117//97 118//97 128//97 127//97
f 114//98 115//98 125//98 124//98
f 111//99 120//99 130//99 121//99
f 118//100 119//100 129//100 128//100
