# Blender 3.5.1
# www.blender.org
mtllib untitled.mtl
o ramp
v 1.000000 0.000000 0.000000
v 0.000000 0.000000 0.000000
v 1.000000 -0.000000 -1.000000
v 0.000000 -0.000000 -1.000000
v 1.000000 1.000000 -1.000000
v 0.000000 1.000000 -1.000000
vn -0.0000 -1.0000 -0.0000
vn -0.0000 -0.0000 -1.0000
vn -0.0000 0.7071 0.7071
vn 1.0000 -0.0000 -0.0000
vn -1.0000 -0.0000 -0.0000
vn -0.0000 -0.7071 -0.7071
s 0
f 2//1 4//1 3//1 1//1
f 4//2 6//2 5//2 3//2
f 2//3 1//3 5//3 6//3
f 3//4 5//4 1//4
f 4//5 2//5 6//5
f 1//6 2//6 4//6 6//6 5//6 3//6
